HIERARCHY
ROOT root
{
	OFFSET 0.000000 0.000000 0.000000
	CHANNELS 6 Xposition Yposition Zposition Zrotation Yrotation Xrotation
	JOINT lhip
	{
		OFFSET 0.058581 -0.082280 -0.017664
		CHANNELS 3 Zrotation Yrotation Xrotation
		JOINT lknee
		{
			OFFSET 0.043451 -0.386469 0.008037
			CHANNELS 3 Zrotation Yrotation Xrotation
			JOINT lankle
			{
				OFFSET -0.014790 -0.426874 -0.037428
				CHANNELS 3 Zrotation Yrotation Xrotation
				JOINT ltoe
				{
					OFFSET 0.041054 -0.060286 0.122042
					CHANNELS 3 Zrotation Yrotation Xrotation
					End Site
					{
						OFFSET 0.000000 0.000000 0.000000
					}
				}
			}
		}
	}
	JOINT rhip
	{
		OFFSET -0.060310 -0.090513 -0.013543
		CHANNELS 3 Zrotation Yrotation Xrotation
		JOINT rknee
		{
			OFFSET -0.043257 -0.383688 -0.004843
			CHANNELS 3 Zrotation Yrotation Xrotation
			JOINT rankle
			{
				OFFSET 0.019056 -0.420046 -0.034562
				CHANNELS 3 Zrotation Yrotation Xrotation
				JOINT rtoe
				{
					OFFSET -0.034840 -0.062106 0.130323
					CHANNELS 3 Zrotation Yrotation Xrotation
					End Site
					{
						OFFSET 0.000000 0.000000 0.000000
					}
				}
			}
		}
	}
	JOINT lowerback
	{
		OFFSET 0.004439 0.124404 -0.038385
		CHANNELS 3 Zrotation Yrotation Xrotation
		JOINT upperback
		{
			OFFSET 0.004488 0.137956 0.026820
			CHANNELS 3 Zrotation Yrotation Xrotation
			JOINT chest
			{
				OFFSET -0.002265 0.056032 0.002855
				CHANNELS 3 Zrotation Yrotation Xrotation
				JOINT lowerneck
				{
					OFFSET -0.013390 0.211636 -0.033468
					CHANNELS 3 Zrotation Yrotation Xrotation
					JOINT upperneck
					{
						OFFSET 0.010113 0.088937 0.050410
						CHANNELS 3 Zrotation Yrotation Xrotation
						End Site
						{
							OFFSET 0.000000 0.000000 0.000000
						}
					}
				}
				JOINT lclavicle
				{
					OFFSET 0.071702 0.114000 -0.018898
					CHANNELS 3 Zrotation Yrotation Xrotation
					JOINT lshoulder
					{
						OFFSET 0.122921 0.045205 -0.019046
						CHANNELS 3 Zrotation Yrotation Xrotation
						JOINT lelbow
						{
							OFFSET 0.255332 -0.015649 -0.022946
							CHANNELS 3 Zrotation Yrotation Xrotation
							JOINT lwrist
							{
								OFFSET 0.265709 0.012698 -0.007375
								CHANNELS 3 Zrotation Yrotation Xrotation
								End Site
								{
									OFFSET 0.000000 0.000000 0.000000
								}
							}
						}
					}
				}
				JOINT rclavicle
				{
					OFFSET -0.082954 0.112472 -0.023707
					CHANNELS 3 Zrotation Yrotation Xrotation
					JOINT rshoulder
					{
						OFFSET -0.113228 0.046853 -0.008472
						CHANNELS 3 Zrotation Yrotation Xrotation
						JOINT relbow
						{
							OFFSET -0.260127 -0.014369 -0.031269
							CHANNELS 3 Zrotation Yrotation Xrotation
							JOINT rwrist
							{
								OFFSET -0.269108 0.006794 -0.006027
								CHANNELS 3 Zrotation Yrotation Xrotation
								End Site
								{
									OFFSET 0.000000 0.000000 0.000000
								}
							}
						}
					}
				}
			}
		}
	}
}
MOTION
Frames: 14
Frame Time: 0.033333
-0.670466 1.922004 0.908842 -13.777405 -3.694331 94.324199 8.634779 10.568729 -39.393225 -8.096105 18.766728 28.262360 3.664909 9.940569 -4.487637 0.000000 -0.000000 0.000000 -7.631457 -10.757992 -26.496301 1.247778 -12.096381 61.954994 1.046244 -9.887420 -31.371781 0.000000 -0.000000 0.000000 -1.465384 3.404613 43.546070 -5.564857 0.088512 -1.501508 -1.729875 0.413626 -3.133196 -16.290486 8.843377 -18.676940 -3.552242 8.323029 11.184502 -33.508596 -10.091721 -0.451427 -31.681492 -3.540318 9.103802 11.311936 -54.220015 -7.927775 11.816196 -9.699220 -18.088959 34.620182 16.929747 6.076127 36.822024 6.807975 6.455516 -17.708957 34.302117 -35.462471 2.177222 15.025927 -17.922272 
-0.666347 1.909594 0.908543 -13.213723 -3.283435 94.713915 8.525645 10.504478 -40.239519 -7.979911 18.674781 30.185260 4.164337 9.776259 -6.136273 0.000000 -0.000000 0.000000 -7.636869 -10.789754 -26.236001 1.059055 -11.626518 62.378447 1.511948 -9.497068 -31.116238 0.000000 -0.000000 0.000000 -1.631000 4.020163 43.263888 -5.395534 0.148871 -1.476517 -1.881129 0.723767 -2.909230 -15.180169 5.770187 -18.955642 -2.769237 2.903359 11.672065 -33.042974 -10.389685 -0.361246 -31.816624 -4.259822 9.276472 11.517639 -53.861123 -8.013273 11.905915 -10.263020 -18.085718 34.543892 17.219034 5.812374 37.025494 6.555639 6.164240 -17.490241 34.320758 -34.719625 1.819368 15.073419 -18.324690 
-0.662553 1.896903 0.908580 -12.556376 -2.948315 94.913558 8.472284 10.376139 -40.636884 -8.176448 18.482614 31.643518 4.671162 9.793908 -7.544436 0.000000 -0.000000 0.000000 -7.931280 -10.555333 -25.462118 1.036521 -11.557763 62.413370 1.827540 -9.501299 -30.906332 0.000000 -0.000000 0.000000 -1.992958 4.563827 43.113169 -5.247556 0.158216 -0.964279 -1.912671 1.012265 -2.981852 -14.024987 2.203688 -18.945901 -1.848694 -2.680710 11.430300 -32.821216 -10.777594 -0.273588 -31.687700 -4.686122 9.485682 12.407184 -54.109974 -9.059667 13.513289 -9.929902 -17.509373 34.222776 17.945605 5.495588 37.481511 6.097249 6.070838 -17.553433 34.465985 -34.347121 1.504262 15.177301 -18.652464 
-0.658867 1.885263 0.908887 -11.977836 -2.481776 95.417658 8.530091 10.282651 -41.276544 -8.251925 18.363434 32.970665 4.828599 9.696963 -8.731770 0.000000 -0.000000 0.000000 -7.876304 -10.490864 -25.079968 0.953338 -11.205995 62.396551 2.218391 -9.242716 -30.556630 0.000000 -0.000000 0.000000 -2.283788 5.107316 43.290542 -5.080991 0.172319 -1.455797 -1.952640 1.218695 -2.847327 -12.601269 -1.031169 -19.131130 -0.633740 -8.070233 11.499614 -32.640366 -10.808386 -0.213239 -31.604950 -4.966883 9.743978 13.089334 -54.339841 -10.046845 13.670345 -9.734500 -17.336019 34.326291 18.177747 5.132905 37.560805 5.657140 6.250767 -17.777512 35.449048 -34.079697 1.348193 14.861234 -18.811932 
-0.654889 1.874250 0.909342 -11.243444 -2.072015 95.696205 8.327052 10.134294 -41.747238 -8.074780 18.112122 34.275578 5.045898 9.492832 -10.051339 0.000000 -0.000000 0.000000 -7.900312 -10.598268 -24.404800 0.759890 -10.961779 62.256198 2.490924 -8.506577 -29.960412 0.000000 -0.000000 0.000000 -2.370479 5.407140 43.502417 -4.956165 -0.005320 -1.705709 -1.931915 1.410228 -3.028488 -11.488224 -4.454354 -18.510497 0.740150 -12.554848 10.706724 -32.743227 -11.067908 0.394126 -31.334029 -5.022186 9.487820 13.195558 -54.020156 -10.071725 13.642247 -10.050030 -17.646109 34.119772 18.554767 5.125259 37.904236 5.551082 5.877056 -17.671132 36.245978 -32.972250 1.042478 15.060575 -19.617251 
-0.650905 1.863855 0.909755 -10.495197 -1.603105 96.068646 8.233973 9.971429 -42.313938 -8.168354 17.623318 35.383650 5.349971 9.577856 -11.062950 0.000000 -0.000000 0.000000 -7.835070 -10.760746 -23.783209 0.693479 -10.791882 61.986970 2.843412 -8.021067 -29.459421 0.000000 -0.000000 0.000000 -2.334456 5.621247 43.503517 -4.775294 -0.202849 -1.555558 -1.967064 1.591288 -2.964354 -10.488786 -6.663912 -18.921680 1.673140 -15.629133 10.264865 -32.491774 -11.202384 0.300638 -31.481561 -5.237810 9.341147 12.519208 -53.422519 -9.385093 12.773976 -9.357716 -17.903775 33.705039 18.854400 4.873367 38.397516 5.798418 5.714542 -18.135565 37.305098 -32.515663 1.191099 14.775699 -20.334964 
-0.647636 1.853858 0.909671 -10.135557 -1.217743 96.516793 8.339583 10.032151 -42.738909 -8.206680 17.657000 36.507884 5.393987 9.316138 -12.219626 0.000000 -0.000000 0.000000 -7.774851 -10.620280 -23.156321 0.676517 -10.773730 61.386889 3.147320 -7.812558 -29.209187 0.000000 -0.000000 0.000000 -2.531584 6.073180 43.240767 -4.675514 -0.278920 -1.624704 -1.928808 1.731633 -2.800076 -9.830025 -7.778024 -18.267531 2.173990 -17.431711 9.876784 -32.427564 -11.512016 0.350337 -31.314211 -5.032056 9.554308 12.543651 -52.867518 -9.937902 12.327091 -9.184767 -17.474794 33.687960 19.304930 4.763077 38.551250 5.941668 5.969418 -18.561601 38.142127 -32.968018 1.353212 14.752086 -20.625393 
-0.644303 1.844702 0.909347 -9.820381 -0.948649 96.852488 8.396377 10.027057 -43.058889 -8.287512 17.744944 37.580084 5.360041 9.223022 -13.459790 0.000000 -0.000000 0.000000 -7.748353 -10.803890 -22.398341 0.433661 -10.925108 60.763556 3.482395 -7.787337 -29.376072 0.000000 -0.000000 0.000000 -2.720111 6.466041 43.201867 -4.596539 -0.424447 -1.695830 -1.871192 1.860869 -3.156390 -9.134286 -9.142783 -17.891438 2.912777 -19.381679 9.803026 -32.301122 -11.598781 0.822180 -31.339403 -4.821976 9.176891 11.954761 -52.282387 -9.497023 12.025835 -9.130949 -17.413809 33.597614 19.454486 5.087626 38.811769 6.282746 5.629983 -18.901155 39.421296 -32.489598 0.937959 14.712174 -21.169902 
-0.640935 1.835843 0.908844 -9.538014 -0.653467 97.254659 8.337516 10.059189 -43.587792 -8.247254 17.649507 38.831655 5.318864 9.242233 -14.614830 0.000000 -0.000000 0.000000 -7.769488 -11.094160 -21.526137 0.198789 -11.306542 59.865472 3.848815 -7.647045 -29.629490 0.000000 -0.000000 0.000000 -2.734825 6.704664 43.063630 -4.564162 -0.554196 -1.987435 -1.942532 1.960020 -3.071599 -8.603965 -9.455875 -18.022581 2.976300 -20.555375 10.116992 -32.353712 -11.415677 0.877790 -31.205369 -4.770180 9.000944 11.299810 -51.649982 -8.791213 11.637726 -9.151419 -17.311493 33.723557 19.424702 4.892175 38.897771 6.723396 5.837408 -19.210813 40.550999 -31.837409 0.746659 14.918387 -21.616908 
-0.637435 1.827774 0.907893 -9.410663 -0.491421 97.502921 8.308749 9.915524 -43.900352 -8.107958 17.861578 39.889644 5.457739 9.239777 -15.625766 0.000000 -0.000000 0.000000 -7.979540 -11.183348 -20.811015 0.093992 -11.355130 59.256050 4.097046 -7.363259 -29.731371 0.000000 -0.000000 0.000000 -2.800199 7.013764 42.852230 -4.544357 -0.685472 -1.703467 -1.933191 2.068023 -3.246469 -8.416096 -9.625335 -18.087837 3.240983 -21.106567 10.026138 -32.165178 -11.609454 0.993662 -31.509732 -4.527008 8.840185 11.326235 -50.861451 -8.916968 11.579545 -9.697441 -17.224494 33.588209 19.630771 5.038461 38.889101 7.130882 5.770429 -19.474053 41.958325 -31.618926 0.907627 14.842512 -22.228185 
-0.633875 1.819689 0.907256 -9.463002 -0.232189 97.671965 8.229161 9.879218 -44.133792 -7.848812 17.784306 41.097350 5.684264 9.316344 -16.771281 0.000000 -0.000000 0.000000 -8.176817 -11.039603 -20.255480 0.197901 -11.186710 58.894424 4.371808 -6.997479 -29.575362 0.000000 -0.000000 0.000000 -2.873617 7.206306 42.790353 -4.572320 -0.614574 -1.696396 -1.905355 2.178888 -3.276329 -8.177869 -9.708342 -18.176067 3.285878 -21.332437 9.806910 -32.362900 -11.719772 1.102904 -31.540604 -4.137116 8.743271 11.978632 -50.377947 -9.481150 10.911649 -9.322257 -16.596865 33.813037 19.931274 5.258303 38.366049 7.694579 5.728648 -19.485599 42.917112 -31.095957 1.538667 14.711793 -22.119118 
-0.630430 1.812659 0.906802 -9.626876 0.141097 97.891828 8.372478 9.908459 -44.429378 -7.559659 18.052642 42.200145 5.841861 9.404124 -17.556062 0.000000 -0.000000 0.000000 -8.189371 -11.206358 -20.002723 0.485996 -10.640504 58.663063 4.507646 -6.623282 -29.353466 0.000000 -0.000000 0.000000 -2.823471 7.355385 42.753400 -4.601261 -0.573838 -1.758143 -1.868626 2.234824 -3.338548 -8.134023 -9.454730 -18.333048 3.015926 -20.638587 10.024495 -32.658355 -11.651526 1.185919 -31.402262 -3.861878 8.456570 11.687309 -49.759642 -9.723882 10.839512 -9.660919 -16.913736 33.852125 20.357127 5.365416 37.883957 8.688796 5.902887 -19.092199 43.121817 -30.513275 1.633517 14.699900 -21.555788 
-0.626998 1.805815 0.906309 -9.904096 0.520494 98.215089 8.388776 10.138733 -44.861993 -7.192898 18.716908 43.193216 6.048002 9.668883 -18.269825 0.000000 -0.000000 0.000000 -8.055667 -11.194960 -19.894698 0.629796 -9.939337 58.344525 4.659034 -6.401386 -29.243842 0.000000 -0.000000 0.000000 -2.795611 7.476175 42.342720 -4.606624 -0.514264 -1.355165 -1.883118 2.365100 -3.438551 -8.233182 -8.679773 -18.633618 2.494856 -19.504881 10.607611 -32.797259 -11.762398 1.110556 -31.397872 -3.465881 8.278539 11.717787 -49.019462 -9.687210 10.575884 -9.409075 -16.267811 34.019164 20.893163 5.595950 37.162708 9.961362 5.878601 -18.785105 43.090813 -29.836332 2.189902 14.208495 -20.568383 
-0.623015 1.798942 0.905752 -9.994294 0.745721 98.505043 8.152059 10.183548 -45.272481 -6.661167 19.968404 44.111684 6.497892 10.200178 -18.997223 0.000000 -0.000000 0.000000 -8.195938 -11.087319 -19.345513 0.875643 -9.564582 57.524146 4.745704 -6.305675 -29.361137 0.000000 -0.000000 0.000000 -2.647395 7.540608 42.209497 -4.679979 -0.433802 -1.461079 -1.817650 2.390581 -3.230790 -8.592964 -6.980611 -18.845741 1.181376 -16.735770 11.412737 -33.008096 -11.971909 1.045917 -31.423209 -3.276463 8.313320 11.288246 -48.019879 -9.598675 10.479316 -9.891854 -16.229034 34.049778 21.292147 5.676339 36.289811 11.316841 6.186919 -18.545173 42.664531 -29.679092 2.526053 14.552847 -20.059784 
